<?xml version="1.0" standalone="no"?>
<!DOCTYPE svg PUBLIC "-//W3C//DTD SVG 20010904//EN"
 "http://www.w3.org/TR/2001/REC-SVG-20010904/DTD/svg10.dtd">
<svg version="1.0" xmlns="http://www.w3.org/2000/svg" viewBox="0 0 1368.000000 600.000000"
 preserveAspectRatio="xMidYMid meet">
<g transform="translate(0.000000,600.000000) scale(0.100000,-0.100000)"
fill="#282828" stroke="none">
<path fill="#ff184e" d="M4153 4879 c-325 -29 -717 -179 -1012 -387 -405 -286 -666 -716 -758
-1247 -24 -141 -24 -451 1 -599 70 -424 254 -786 550 -1082 288 -288 643 -473
1046 -546 156 -28 447 -31 605 -5 256 40 470 112 671 224 553 306 923 872 993
1515 45 411 -59 856 -279 1193 -55 84 -180 248 -185 243 -1 -2 -8 -55 -14
-118 -14 -149 -50 -280 -111 -407 -153 -321 -434 -578 -750 -686 -252 -86
-537 -73 -789 36 -321 139 -509 414 -457 665 57 273 387 542 666 542 240 0
462 -171 464 -355 1 -183 -156 -271 -394 -221 -36 8 -67 12 -69 10 -2 -2 36
-43 85 -92 103 -101 181 -145 291 -164 265 -45 562 194 638 515 19 81 19 217
0 292 -21 81 -86 215 -139 288 -215 299 -569 429 -1053 386z m1720 -1736 c66
-268 59 -494 -20 -731 -156 -467 -624 -854 -1203 -995 -104 -26 -311 -60 -317
-53 -2 2 53 39 123 82 117 73 287 215 273 229 -3 2 -43 0 -90 -6 -183 -23
-417 28 -778 169 l-75 29 145 6 c106 4 169 12 241 31 172 44 355 126 499 223
l57 38 -92 1 c-135 2 -232 34 -484 160 -117 59 -211 109 -208 111 2 2 82 0
177 -6 434 -24 813 41 1109 189 238 119 448 325 566 555 22 41 42 75 45 75 3
0 18 -48 32 -107z"/>
<path d="M27 4772 c-16 -17 -17 -155 -17 -1780 0 -1749 0 -1762 20 -1782 19
-19 33 -20 488 -20 457 0 469 0 490 20 l22 21 0 664 0 665 550 0 551 0 24 25
25 24 0 384 c0 315 -3 387 -14 403 -14 18 -35 19 -573 24 l-558 5 -3 253 -2
252 633 0 634 0 21 23 c22 23 22 27 22 414 0 365 -1 391 -18 406 -17 16 -111
17 -1149 17 -1082 0 -1131 -1 -1146 -18z"/>
<path d="M6216 4774 c-9 -8 -19 -26 -22 -40 -9 -34 13 -392 32 -527 68 -493
233 -875 499 -1159 l53 -56 -30 -29 c-50 -47 -142 -163 -200 -253 -220 -337
-329 -742 -353 -1312 l-7 -157 25 -25 26 -26 474 0 c451 0 474 1 494 19 18 17
21 36 27 167 31 644 182 1040 443 1165 206 98 429 5 563 -236 123 -222 183
-503 206 -958 5 -102 9 -121 27 -138 20 -18 39 -19 494 -19 l474 0 26 26 26
26 -7 151 c-17 369 -60 634 -147 892 -73 216 -227 483 -364 633 -61 65 -66 75
-53 90 8 9 40 46 72 82 231 259 391 640 456 1085 22 154 46 520 36 559 -14 58
6 56 -520 56 -447 0 -484 -1 -498 -17 -12 -14 -17 -55 -22 -163 -11 -248 -36
-428 -86 -628 -51 -202 -121 -335 -240 -453 -53 -52 -82 -72 -138 -94 -63 -25
-80 -27 -164 -23 -113 5 -164 29 -269 126 -60 56 -76 79 -134 195 -103 208
-156 458 -175 835 -8 149 -13 189 -27 204 -15 17 -44 18 -499 18 -425 0 -484
-2 -498 -16z"/>
<path d="M9714 4782 c-34 -22 -34 -32 -34 -1797 l0 -1746 25 -24 24 -25 466 0
466 0 24 25 25 24 0 1746 c0 1765 0 1775 -34 1797 -14 10 -948 10 -962 0z"/>
<path d="M10927 4772 c-15 -17 -17 -60 -17 -410 0 -382 1 -393 20 -410 19 -16
71 -17 650 -22 l629 -5 -649 -1280 -649 -1280 -1 -67 c0 -55 4 -72 20 -88 20
-20 33 -20 1360 -20 1327 0 1340 0 1360 20 19 19 20 33 20 413 0 388 0 394
-21 413 -20 18 -49 19 -648 24 l-627 5 648 1279 648 1278 0 68 c0 112 159 100
-1382 100 -1290 0 -1346 -1 -1361 -18z"/>
</g>
</svg>
